<mxfile host="app.diagrams.net" modified="2024-02-05T08:58:18.746Z" agent="Mozilla/5.0 (Windows NT 10.0; Win64; x64) AppleWebKit/537.36 (KHTML, like Gecko) Chrome/121.0.0.0 Safari/537.36" etag="83hA_7KzOfIQo-pydNFj" version="23.1.1" type="github">
  <diagram name="第 1 页" id="7NY8cXBH3FeXncnWGY5Q">
    <mxGraphModel dx="4068" dy="1976" grid="0" gridSize="10" guides="1" tooltips="1" connect="1" arrows="1" fold="1" page="0" pageScale="1" pageWidth="827" pageHeight="1169" math="0" shadow="0">
      <root>
        <mxCell id="0" />
        <mxCell id="1" parent="0" />
        <mxCell id="5DMnr8mMx7A8eih37-8B-9" style="edgeStyle=none;curved=1;rounded=0;orthogonalLoop=1;jettySize=auto;html=1;exitX=0.5;exitY=1;exitDx=0;exitDy=0;fontSize=12;startSize=8;endSize=8;" parent="1" source="5DMnr8mMx7A8eih37-8B-1" edge="1">
          <mxGeometry relative="1" as="geometry">
            <mxPoint x="-287" y="92" as="targetPoint" />
          </mxGeometry>
        </mxCell>
        <mxCell id="5DMnr8mMx7A8eih37-8B-1" value="會員公司傳送相關報名資訊" style="rounded=0;whiteSpace=wrap;html=1;fontSize=16;" parent="1" vertex="1">
          <mxGeometry x="-362" y="-60" width="149" height="70" as="geometry" />
        </mxCell>
        <mxCell id="5DMnr8mMx7A8eih37-8B-12" value="" style="edgeStyle=none;curved=1;rounded=0;orthogonalLoop=1;jettySize=auto;html=1;fontSize=12;startSize=8;endSize=8;" parent="1" source="5DMnr8mMx7A8eih37-8B-6" target="5DMnr8mMx7A8eih37-8B-11" edge="1">
          <mxGeometry relative="1" as="geometry" />
        </mxCell>
        <mxCell id="5DMnr8mMx7A8eih37-8B-6" value="會員端自行初步審核檔案格式有無錯誤，以及需不需要加入附件" style="rounded=0;whiteSpace=wrap;html=1;fontSize=16;" parent="1" vertex="1">
          <mxGeometry x="-358" y="94" width="160" height="88" as="geometry" />
        </mxCell>
        <mxCell id="5DMnr8mMx7A8eih37-8B-7" value="&lt;b style=&quot;font-size: 24px;&quot;&gt;&lt;font color=&quot;#7f00ff&quot;&gt;資格測驗-每周2開放報名次周六的測驗&lt;br&gt;&lt;br&gt;外幣測驗-每月二、四週的禮拜三開放報名次周日的測驗&lt;/font&gt;&lt;/b&gt;" style="text;strokeColor=none;fillColor=none;html=1;align=center;verticalAlign=middle;whiteSpace=wrap;rounded=0;fontSize=16;" parent="1" vertex="1">
          <mxGeometry x="-968" y="-290" width="475.5" height="154" as="geometry" />
        </mxCell>
        <mxCell id="5DMnr8mMx7A8eih37-8B-10" value="&lt;font color=&quot;#ff3333&quot;&gt;會員公司只能在報名日當天把報名資訊上傳給工會&lt;/font&gt;" style="text;strokeColor=none;fillColor=none;html=1;align=center;verticalAlign=middle;whiteSpace=wrap;rounded=0;fontSize=16;" parent="1" vertex="1">
          <mxGeometry x="-582" y="-60" width="180" height="63" as="geometry" />
        </mxCell>
        <mxCell id="5DMnr8mMx7A8eih37-8B-24" value="" style="edgeStyle=none;curved=1;rounded=0;orthogonalLoop=1;jettySize=auto;html=1;fontSize=12;startSize=8;endSize=8;" parent="1" source="5DMnr8mMx7A8eih37-8B-11" edge="1">
          <mxGeometry relative="1" as="geometry">
            <mxPoint x="-275" y="390" as="targetPoint" />
          </mxGeometry>
        </mxCell>
        <mxCell id="5DMnr8mMx7A8eih37-8B-11" value="格式審核" style="strokeWidth=2;html=1;shape=mxgraph.flowchart.decision;whiteSpace=wrap;fontSize=16;" parent="1" vertex="1">
          <mxGeometry x="-354" y="240" width="151" height="90" as="geometry" />
        </mxCell>
        <mxCell id="5DMnr8mMx7A8eih37-8B-20" value="" style="edgeStyle=segmentEdgeStyle;endArrow=classic;html=1;curved=0;rounded=0;endSize=8;startSize=8;fontSize=12;" parent="1" edge="1">
          <mxGeometry width="50" height="50" relative="1" as="geometry">
            <mxPoint x="-205" y="285" as="sourcePoint" />
            <mxPoint x="-162" y="-24" as="targetPoint" />
          </mxGeometry>
        </mxCell>
        <mxCell id="5DMnr8mMx7A8eih37-8B-21" value="" style="endArrow=classic;html=1;rounded=0;fontSize=12;startSize=8;endSize=8;curved=1;" parent="1" edge="1">
          <mxGeometry width="50" height="50" relative="1" as="geometry">
            <mxPoint x="-163.02" y="-21" as="sourcePoint" />
            <mxPoint x="-206" y="-21" as="targetPoint" />
          </mxGeometry>
        </mxCell>
        <mxCell id="5DMnr8mMx7A8eih37-8B-22" value="否" style="text;strokeColor=none;fillColor=none;html=1;align=center;verticalAlign=middle;whiteSpace=wrap;rounded=0;fontSize=16;" parent="1" vertex="1">
          <mxGeometry x="-231" y="260" width="86" height="29" as="geometry" />
        </mxCell>
        <mxCell id="5DMnr8mMx7A8eih37-8B-25" value="是" style="text;strokeColor=none;fillColor=none;html=1;align=center;verticalAlign=middle;whiteSpace=wrap;rounded=0;fontSize=16;" parent="1" vertex="1">
          <mxGeometry x="-315" y="351" width="60" height="30" as="geometry" />
        </mxCell>
        <mxCell id="5DMnr8mMx7A8eih37-8B-31" value="" style="edgeStyle=none;curved=1;rounded=0;orthogonalLoop=1;jettySize=auto;html=1;fontSize=12;startSize=8;endSize=8;" parent="1" source="5DMnr8mMx7A8eih37-8B-27" target="5DMnr8mMx7A8eih37-8B-30" edge="1">
          <mxGeometry relative="1" as="geometry" />
        </mxCell>
        <mxCell id="5DMnr8mMx7A8eih37-8B-27" value="公會審查及驗對資料" style="rounded=0;whiteSpace=wrap;html=1;fontSize=16;" parent="1" vertex="1">
          <mxGeometry x="-349" y="395" width="151" height="60" as="geometry" />
        </mxCell>
        <mxCell id="5DMnr8mMx7A8eih37-8B-28" style="edgeStyle=none;curved=1;rounded=0;orthogonalLoop=1;jettySize=auto;html=1;exitX=0.75;exitY=0;exitDx=0;exitDy=0;fontSize=12;startSize=8;endSize=8;" parent="1" source="5DMnr8mMx7A8eih37-8B-27" target="5DMnr8mMx7A8eih37-8B-27" edge="1">
          <mxGeometry relative="1" as="geometry" />
        </mxCell>
        <mxCell id="5DMnr8mMx7A8eih37-8B-33" value="" style="edgeStyle=none;curved=1;rounded=0;orthogonalLoop=1;jettySize=auto;html=1;fontSize=12;startSize=8;endSize=8;" parent="1" source="5DMnr8mMx7A8eih37-8B-30" target="5DMnr8mMx7A8eih37-8B-32" edge="1">
          <mxGeometry relative="1" as="geometry" />
        </mxCell>
        <mxCell id="5DMnr8mMx7A8eih37-8B-30" value="傳送審查結果給予會員端及費用" style="rounded=0;whiteSpace=wrap;html=1;fontSize=16;" parent="1" vertex="1">
          <mxGeometry x="-352" y="533" width="165" height="60" as="geometry" />
        </mxCell>
        <mxCell id="5DMnr8mMx7A8eih37-8B-35" value="" style="edgeStyle=none;curved=1;rounded=0;orthogonalLoop=1;jettySize=auto;html=1;fontSize=12;startSize=8;endSize=8;" parent="1" source="5DMnr8mMx7A8eih37-8B-32" target="5DMnr8mMx7A8eih37-8B-34" edge="1">
          <mxGeometry relative="1" as="geometry" />
        </mxCell>
        <mxCell id="5DMnr8mMx7A8eih37-8B-32" value="本會檢查款項是否入帳" style="rhombus;whiteSpace=wrap;html=1;fontSize=16;" parent="1" vertex="1">
          <mxGeometry x="-354" y="675" width="177" height="128" as="geometry" />
        </mxCell>
        <mxCell id="5DMnr8mMx7A8eih37-8B-34" value="完成報名" style="rounded=0;whiteSpace=wrap;html=1;fontSize=16;" parent="1" vertex="1">
          <mxGeometry x="-323" y="871" width="120" height="74" as="geometry" />
        </mxCell>
        <mxCell id="5DMnr8mMx7A8eih37-8B-36" value="&lt;font color=&quot;#ff3333&quot;&gt;資格測驗為報名當周四(外幣為報名當周五)中午前匯款，本會於報名當周五(外幣為報名次周一)中午12點至銀行登帳。&lt;/font&gt;" style="text;strokeColor=none;fillColor=none;html=1;align=center;verticalAlign=middle;whiteSpace=wrap;rounded=0;fontSize=16;" parent="1" vertex="1">
          <mxGeometry x="-597" y="671" width="218" height="161" as="geometry" />
        </mxCell>
        <mxCell id="5DMnr8mMx7A8eih37-8B-39" value="&lt;b style=&quot;&quot;&gt;&lt;font style=&quot;font-size: 20px; background-color: rgb(255, 255, 51);&quot;&gt;會員端報名測驗&lt;/font&gt;&lt;/b&gt;" style="html=1;shadow=0;dashed=0;align=center;verticalAlign=middle;shape=mxgraph.arrows2.arrow;dy=0;dx=10;notch=10;fontSize=16;fillColor=#f8cecc;strokeColor=#b85450;labelBackgroundColor=#FF9999;" parent="1" vertex="1">
          <mxGeometry x="-389.5" y="-153" width="209" height="58" as="geometry" />
        </mxCell>
        <mxCell id="L9KPJSMsvv15GthCjfzb-5" value="" style="edgeStyle=none;curved=1;rounded=0;orthogonalLoop=1;jettySize=auto;html=1;fontSize=12;startSize=8;endSize=8;" edge="1" parent="1" source="L9KPJSMsvv15GthCjfzb-3" target="L9KPJSMsvv15GthCjfzb-4">
          <mxGeometry relative="1" as="geometry" />
        </mxCell>
        <mxCell id="L9KPJSMsvv15GthCjfzb-3" value="個人傳送相關報名資訊" style="rounded=0;whiteSpace=wrap;html=1;fontSize=16;" vertex="1" parent="1">
          <mxGeometry x="147" y="-60" width="200" height="60" as="geometry" />
        </mxCell>
        <mxCell id="L9KPJSMsvv15GthCjfzb-7" value="" style="edgeStyle=none;curved=1;rounded=0;orthogonalLoop=1;jettySize=auto;html=1;fontSize=12;startSize=8;endSize=8;" edge="1" parent="1" source="L9KPJSMsvv15GthCjfzb-4" target="L9KPJSMsvv15GthCjfzb-6">
          <mxGeometry relative="1" as="geometry" />
        </mxCell>
        <mxCell id="L9KPJSMsvv15GthCjfzb-4" value="大眾端自行初步審核檔案格式有無錯誤，以及需不需要加入附件" style="rounded=0;whiteSpace=wrap;html=1;fontSize=16;" vertex="1" parent="1">
          <mxGeometry x="165" y="78" width="169" height="95" as="geometry" />
        </mxCell>
        <mxCell id="L9KPJSMsvv15GthCjfzb-14" value="" style="edgeStyle=none;curved=1;rounded=0;orthogonalLoop=1;jettySize=auto;html=1;fontSize=12;startSize=8;endSize=8;" edge="1" parent="1" source="L9KPJSMsvv15GthCjfzb-6" target="L9KPJSMsvv15GthCjfzb-13">
          <mxGeometry relative="1" as="geometry" />
        </mxCell>
        <mxCell id="L9KPJSMsvv15GthCjfzb-6" value="格式審核" style="rhombus;whiteSpace=wrap;html=1;fontSize=16;" vertex="1" parent="1">
          <mxGeometry x="172" y="247" width="162" height="80" as="geometry" />
        </mxCell>
        <mxCell id="L9KPJSMsvv15GthCjfzb-11" value="" style="edgeStyle=segmentEdgeStyle;endArrow=classic;html=1;curved=0;rounded=0;endSize=8;startSize=8;fontSize=12;entryX=1;entryY=0.65;entryDx=0;entryDy=0;entryPerimeter=0;" edge="1" parent="1">
          <mxGeometry width="50" height="50" relative="1" as="geometry">
            <mxPoint x="338" y="289" as="sourcePoint" />
            <mxPoint x="346" y="-19" as="targetPoint" />
            <Array as="points">
              <mxPoint x="471" y="289" />
              <mxPoint x="471" y="-19" />
            </Array>
          </mxGeometry>
        </mxCell>
        <mxCell id="L9KPJSMsvv15GthCjfzb-12" value="否" style="text;html=1;align=center;verticalAlign=middle;resizable=0;points=[];autosize=1;strokeColor=none;fillColor=none;fontSize=16;" vertex="1" parent="1">
          <mxGeometry x="387" y="258" width="34" height="31" as="geometry" />
        </mxCell>
        <mxCell id="L9KPJSMsvv15GthCjfzb-17" value="" style="edgeStyle=none;curved=1;rounded=0;orthogonalLoop=1;jettySize=auto;html=1;fontSize=12;startSize=8;endSize=8;" edge="1" parent="1" source="L9KPJSMsvv15GthCjfzb-13" target="L9KPJSMsvv15GthCjfzb-16">
          <mxGeometry relative="1" as="geometry" />
        </mxCell>
        <mxCell id="L9KPJSMsvv15GthCjfzb-13" value="產生繳費單，&lt;font color=&quot;#cc0000&quot;&gt;報名後3天內要繳費完成，否則報名失敗&lt;/font&gt;" style="rounded=0;whiteSpace=wrap;html=1;fontSize=16;" vertex="1" parent="1">
          <mxGeometry x="147.75" y="386" width="210.5" height="73" as="geometry" />
        </mxCell>
        <mxCell id="L9KPJSMsvv15GthCjfzb-15" value="是" style="text;html=1;align=center;verticalAlign=middle;resizable=0;points=[];autosize=1;strokeColor=none;fillColor=none;fontSize=16;" vertex="1" parent="1">
          <mxGeometry x="216" y="339" width="34" height="31" as="geometry" />
        </mxCell>
        <mxCell id="L9KPJSMsvv15GthCjfzb-19" value="" style="edgeStyle=none;curved=1;rounded=0;orthogonalLoop=1;jettySize=auto;html=1;fontSize=12;startSize=8;endSize=8;" edge="1" parent="1" source="L9KPJSMsvv15GthCjfzb-16" target="L9KPJSMsvv15GthCjfzb-18">
          <mxGeometry relative="1" as="geometry" />
        </mxCell>
        <mxCell id="L9KPJSMsvv15GthCjfzb-16" value="公會審查及驗對資料" style="rounded=0;whiteSpace=wrap;html=1;fontSize=16;" vertex="1" parent="1">
          <mxGeometry x="161" y="522" width="192" height="60" as="geometry" />
        </mxCell>
        <mxCell id="L9KPJSMsvv15GthCjfzb-21" value="" style="edgeStyle=none;curved=1;rounded=0;orthogonalLoop=1;jettySize=auto;html=1;fontSize=12;startSize=8;endSize=8;" edge="1" parent="1" source="L9KPJSMsvv15GthCjfzb-18" target="L9KPJSMsvv15GthCjfzb-20">
          <mxGeometry relative="1" as="geometry" />
        </mxCell>
        <mxCell id="L9KPJSMsvv15GthCjfzb-24" value="" style="edgeStyle=none;curved=1;rounded=0;orthogonalLoop=1;jettySize=auto;html=1;fontSize=12;startSize=8;endSize=8;" edge="1" parent="1" source="L9KPJSMsvv15GthCjfzb-18" target="L9KPJSMsvv15GthCjfzb-23">
          <mxGeometry relative="1" as="geometry" />
        </mxCell>
        <mxCell id="L9KPJSMsvv15GthCjfzb-18" value="本會檢查款項是否入帳" style="rhombus;whiteSpace=wrap;html=1;fontSize=16;" vertex="1" parent="1">
          <mxGeometry x="160.25" y="671" width="198" height="126" as="geometry" />
        </mxCell>
        <mxCell id="L9KPJSMsvv15GthCjfzb-20" value="報名失敗" style="whiteSpace=wrap;html=1;fontSize=16;" vertex="1" parent="1">
          <mxGeometry x="468" y="704" width="120" height="60" as="geometry" />
        </mxCell>
        <mxCell id="L9KPJSMsvv15GthCjfzb-22" value="否" style="text;html=1;align=center;verticalAlign=middle;resizable=0;points=[];autosize=1;strokeColor=none;fillColor=none;fontSize=16;" vertex="1" parent="1">
          <mxGeometry x="387" y="700" width="34" height="31" as="geometry" />
        </mxCell>
        <mxCell id="L9KPJSMsvv15GthCjfzb-27" value="" style="edgeStyle=none;curved=1;rounded=0;orthogonalLoop=1;jettySize=auto;html=1;fontSize=12;startSize=8;endSize=8;" edge="1" parent="1" source="L9KPJSMsvv15GthCjfzb-23" target="L9KPJSMsvv15GthCjfzb-26">
          <mxGeometry relative="1" as="geometry" />
        </mxCell>
        <mxCell id="L9KPJSMsvv15GthCjfzb-23" value="傳送審核結果" style="whiteSpace=wrap;html=1;fontSize=16;" vertex="1" parent="1">
          <mxGeometry x="203" y="875" width="120" height="60" as="geometry" />
        </mxCell>
        <mxCell id="L9KPJSMsvv15GthCjfzb-25" value="是" style="text;html=1;align=center;verticalAlign=middle;resizable=0;points=[];autosize=1;strokeColor=none;fillColor=none;fontSize=16;" vertex="1" parent="1">
          <mxGeometry x="225" y="818" width="34" height="31" as="geometry" />
        </mxCell>
        <mxCell id="L9KPJSMsvv15GthCjfzb-26" value="報名成功" style="whiteSpace=wrap;html=1;fontSize=16;" vertex="1" parent="1">
          <mxGeometry x="205" y="1001" width="120" height="60" as="geometry" />
        </mxCell>
        <mxCell id="L9KPJSMsvv15GthCjfzb-28" value="&lt;b style=&quot;&quot;&gt;&lt;font style=&quot;font-size: 20px; background-color: rgb(255, 255, 51);&quot;&gt;會員端報名測驗&lt;/font&gt;&lt;/b&gt;" style="html=1;shadow=0;dashed=0;align=center;verticalAlign=middle;shape=mxgraph.arrows2.arrow;dy=0;dx=10;notch=10;fontSize=16;fillColor=#f8cecc;strokeColor=#b85450;labelBackgroundColor=#FF9999;" vertex="1" parent="1">
          <mxGeometry x="-389.5" y="-153" width="209" height="58" as="geometry" />
        </mxCell>
        <mxCell id="L9KPJSMsvv15GthCjfzb-29" value="&lt;span style=&quot;font-size: 20px; background-color: rgb(255, 255, 51);&quot;&gt;&lt;b&gt;大眾端報名測驗&lt;/b&gt;&lt;/span&gt;" style="html=1;shadow=0;dashed=0;align=center;verticalAlign=middle;shape=mxgraph.arrows2.arrow;dy=0;dx=10;notch=10;fontSize=16;fillColor=#f8cecc;strokeColor=#b85450;labelBackgroundColor=#FF9999;" vertex="1" parent="1">
          <mxGeometry x="147" y="-159" width="209" height="58" as="geometry" />
        </mxCell>
      </root>
    </mxGraphModel>
  </diagram>
</mxfile>
